<svg xmlns="http://www.w3.org/2000/svg" viewBox="0 0 512 512" width="512" height="512">
  <defs>
    <linearGradient id="bg" x1="0" y1="0" x2="1" y2="1">
      <stop offset="0" stop-color="#0f766e"/>
      <stop offset="1" stop-color="#134e4a"/>
    </linearGradient>
    <linearGradient id="acc" x1="0" y1="0" x2="0" y2="1">
      <stop offset="0" stop-color="#5eead4"/>
      <stop offset="1" stop-color="#2dd4bf"/>
    </linearGradient>
  </defs>
  <rect width="512" height="512" rx="112" fill="url(#bg)"/>
  <!-- route line -->
  <path d="M150 380 C 150 250, 250 250, 250 180 S 350 120, 360 100" fill="none" stroke="url(#acc)" stroke-width="22" stroke-linecap="round" stroke-dasharray="10 26"/>
  <!-- pin -->
  <g transform="translate(330 78)">
    <path d="M40 0 C18 0 0 18 0 40 C0 70 40 110 40 110 C40 110 80 70 80 40 C80 18 62 0 40 0 Z" fill="url(#acc)"/>
    <circle cx="40" cy="40" r="16" fill="#0f172a"/>
  </g>
  <!-- package box -->
  <g transform="translate(110 320)">
    <rect x="0" y="0" width="90" height="78" rx="12" fill="#f8fafc"/>
    <rect x="0" y="0" width="90" height="22" rx="12" fill="#cbd5e1"/>
    <path d="M45 22 L45 78 M0 40 L90 40" stroke="#94a3b8" stroke-width="4"/>
    <rect x="34" y="-8" width="22" height="16" rx="4" fill="#f59e0b"/>
  </g>
</svg>
